<svg width="78" height="46" viewBox="0 0 78 46" fill="none" xmlns="http://www.w3.org/2000/svg">
<path d="M67.5422 14.0975C67.3018 10.9129 64.9578 9.05018 60.7507 9.05018C56.6036 9.05018 54.5001 10.8528 54.44 13.3163C54.3799 16.0202 57.0243 17.3421 60.931 18.1833L64.7174 19.0846C73.0716 20.9473 77.9399 25.0933 78 32.0633C77.9399 40.2952 71.4489 46 60.6305 46C49.8121 46 42.9003 40.3553 42.72 30.3809H52.5768C52.8172 34.587 55.9425 36.7501 60.6305 36.7501C64.9578 36.7501 67.5422 34.8273 67.6023 32.0633C67.5422 29.5397 65.3184 28.2178 60.5103 27.1362L55.9425 26.0547C48.4297 24.3122 43.862 20.5868 43.862 14.0374C43.8019 5.98577 50.8939 0 60.7507 0C70.7877 0 77.2788 6.04586 77.399 14.0975H67.5422Z" fill="#004684"/>
<path d="M0 0.43949H14.9465V44.9745H0V0.43949Z" fill="#004684"/>
<path d="M14.0673 15.3822H29.0139V30.3248H14.0673V15.3822Z" fill="#004684"/>
<path d="M29.0139 0.43949H43.9604V15.3822H29.0139V0.43949Z" fill="#ED1C24"/>
<path d="M29.0139 30.3248L43.9604 30.3809V45.2675H29.0139V30.3248Z" fill="#004684"/>
</svg>
